<?xml version="1.0" standalone="no"?>
<!DOCTYPE svg PUBLIC "-//W3C//DTD SVG 20010904//EN"
 "http://www.w3.org/TR/2001/REC-SVG-20010904/DTD/svg10.dtd">
<svg version="1.0" xmlns="http://www.w3.org/2000/svg"
 width="632.000000pt" height="632.000000pt" viewBox="0 0 632.000000 632.000000"
 preserveAspectRatio="xMidYMid meet">
<metadata>
Created by potrace 1.14, written by Peter Selinger 2001-2017
</metadata>
<g transform="translate(0.000000,632.000000) scale(0.100000,-0.100000)"
fill="#000000" stroke="none">
<path d="M3958 6315 c-2 -2 -37 -6 -78 -10 -41 -3 -82 -8 -90 -10 -8 -3 -37
-7 -65 -10 -27 -3 -61 -7 -75 -10 -23 -5 -112 -21 -170 -32 -14 -2 -54 -11
-90 -19 -36 -9 -69 -17 -75 -18 -57 -11 -212 -51 -217 -55 -4 -3 14 -7 40 -9
261 -14 441 -201 502 -520 16 -85 24 -194 24 -317 -1 -110 -10 -279 -18 -322
-2 -10 -7 -43 -10 -74 -4 -31 -9 -67 -11 -80 -3 -13 -7 -37 -10 -54 -3 -16
-10 -52 -15 -80 -5 -27 -12 -62 -14 -76 -2 -15 -25 -109 -50 -210 -93 -375
-243 -793 -376 -1041 -22 -41 -40 -79 -40 -82 0 -4 15 7 33 24 17 17 82 64
142 104 209 140 452 270 750 401 211 93 586 215 735 239 19 3 60 10 90 16 90
18 316 20 395 4 156 -32 264 -117 304 -237 11 -34 22 -77 23 -94 1 -18 5 -33
8 -33 3 0 19 73 34 163 36 204 33 183 40 242 4 28 9 64 11 80 3 17 7 50 9 75
3 25 8 79 13 120 10 92 11 543 1 625 -20 171 -42 286 -59 314 -7 12 -8 8 -3
-14 3 -16 8 -37 10 -45 23 -69 22 -626 0 -746 -2 -10 -7 -53 -10 -94 -4 -41
-9 -88 -11 -105 -2 -16 -6 -55 -10 -85 -3 -30 -8 -64 -10 -75 -2 -11 -4 -37
-4 -57 -1 -42 -21 -53 -21 -13 0 14 -7 42 -15 63 -68 160 -294 198 -645 107
-147 -38 -360 -112 -488 -171 -29 -13 -55 -24 -57 -24 -14 0 -410 -198 -545
-272 -217 -119 -247 -136 -319 -180 -34 -21 -65 -38 -67 -38 -3 0 -17 -8 -32
-19 -15 -10 -64 -41 -109 -69 l-81 -51 28 42 c99 149 234 472 357 852 49 154
147 532 157 609 4 27 9 52 10 55 2 3 7 29 10 56 4 28 11 75 16 105 38 230 31
540 -16 683 -64 195 -178 296 -351 309 -18 1 -33 6 -33 10 0 4 15 8 33 9 17 0
41 2 52 5 11 2 45 6 75 9 30 4 66 8 80 10 14 2 57 7 95 10 39 4 84 9 100 11
159 21 594 21 745 0 14 -2 48 -7 75 -11 225 -31 483 -126 605 -223 73 -57 79
-58 20 -3 -176 167 -430 280 -735 325 -78 12 -587 21 -597 11z"/>
<path d="M3067 5428 c-51 -11 -107 -41 -137 -73 -14 -15 -20 -26 -15 -23 6 2
28 12 49 22 61 28 146 28 203 1 149 -70 194 -244 96 -374 -21 -26 -22 -31 -7
-23 33 18 82 76 99 116 79 189 -90 396 -288 354z"/>
<path d="M2189 4946 c-2 -2 -38 -6 -79 -10 -80 -6 -152 -15 -185 -21 -11 -2
-32 -4 -47 -4 -16 -1 -28 -4 -28 -9 0 -4 30 -5 68 -1 73 6 510 3 581 -5 24 -3
67 -10 95 -16 28 -6 62 -12 75 -15 74 -14 162 -55 204 -94 50 -46 57 -70 53
-178 -5 -156 -67 -349 -228 -713 -117 -264 -430 -837 -577 -1055 -22 -32 -39
-60 -37 -62 2 -2 59 34 127 79 68 45 132 87 141 93 10 5 69 44 132 85 l115 75
102 230 c110 248 216 507 243 595 10 30 20 62 23 70 3 8 7 20 9 25 1 6 14 53
28 105 104 390 50 620 -174 739 -59 31 -134 57 -190 65 -19 3 -46 8 -60 12
-27 7 -385 16 -391 10z"/>
<path d="M2435 2700 c-16 -9 -97 -52 -180 -95 -261 -135 -238 -118 -280 -212
-62 -138 -237 -443 -412 -718 -102 -159 -278 -425 -283 -425 -3 0 -6 51 -7
113 -5 252 -99 527 -240 701 -76 94 -82 97 -209 97 -60 0 -134 0 -164 0 l-55
-1 45 -30 c197 -131 353 -430 425 -817 19 -103 22 -125 30 -208 4 -38 8 -72
10 -75 2 -4 406 -5 425 -1 3 0 7 15 8 32 1 18 14 62 28 98 29 76 195 413 254
516 22 39 54 95 70 125 91 165 319 534 472 763 55 82 98 150 96 152 -2 1 -16
-5 -33 -15z"/>
<path d="M3206 2653 c-243 -35 -448 -145 -658 -355 -65 -64 -118 -121 -118
-126 0 -6 -7 -17 -15 -26 -47 -47 -150 -262 -169 -351 -4 -16 -9 -41 -12 -55
-9 -46 -5 -185 7 -236 49 -204 216 -376 434 -448 177 -57 455 -59 644 -2 193
57 339 196 406 385 l14 41 -99 1 c-178 2 -180 2 -186 -18 -33 -102 -107 -200
-190 -253 -95 -60 -260 -89 -352 -61 -18 5 -35 10 -37 10 -17 -1 -75 16 -100
28 -131 65 -215 181 -250 345 -12 56 -13 226 -1 278 3 14 8 39 12 55 41 207
199 450 364 560 58 38 210 111 210 100 0 -1 17 1 38 6 42 10 163 12 205 4 15
-3 37 -7 50 -9 117 -20 192 -82 222 -184 10 -34 24 -62 29 -63 34 -3 162 -5
168 -2 11 5 -18 98 -48 153 -54 100 -175 185 -304 215 -83 20 -167 22 -264 8z"/>
<path d="M4930 2659 c-132 -13 -208 -35 -337 -96 -71 -33 -200 -115 -258 -163
-108 -89 -241 -246 -307 -360 -25 -44 -76 -159 -84 -189 -63 -256 -35 -418
100 -583 107 -130 251 -208 446 -243 74 -14 335 -14 390 -1 14 3 38 9 54 12
160 29 316 129 402 258 32 49 89 175 82 182 -4 3 -145 7 -229 5 -46 -1 -46 -2
-64 -48 -55 -146 -172 -247 -324 -283 -73 -17 -210 -8 -291 20 -224 76 -345
305 -308 585 14 104 17 122 33 172 103 317 322 545 576 599 132 28 318 7 404
-46 40 -25 59 -53 94 -138 l27 -64 82 -4 c45 -1 84 1 87 6 8 12 -17 95 -44
145 -24 47 -82 112 -129 144 -38 26 -144 71 -181 76 -14 2 -44 7 -66 10 -58
10 -83 11 -155 4z"/>
<path d="M1110 746 c0 -8 605 -11 2155 -11 1551 0 2155 3 2155 11 0 8 -604 11
-2155 11 -1550 0 -2155 -3 -2155 -11z"/>
<path d="M1650 379 c-75 -34 -110 -93 -110 -186 0 -91 57 -163 143 -182 38 -9
119 22 150 56 25 29 55 113 51 143 -11 73 -17 92 -41 120 -51 62 -124 80 -193
49z m127 -48 c35 -25 55 -76 52 -134 -5 -121 -89 -181 -177 -127 -114 70 -60
300 66 283 20 -3 46 -13 59 -22z"/>
<path d="M4716 385 c-74 -26 -113 -79 -121 -164 -15 -175 153 -275 275 -165
60 54 77 125 54 227 -7 34 -66 95 -97 102 -54 12 -75 12 -111 0z m111 -51 c49
-31 74 -135 47 -200 -18 -44 -69 -84 -107 -84 -68 0 -127 72 -122 149 1 20 3
46 4 58 1 29 56 91 84 96 30 5 67 -2 94 -19z"/>
<path d="M1183 205 l0 -185 23 0 c23 0 24 3 24 79 0 89 0 89 73 85 35 -1 50 2
54 12 9 23 -3 27 -67 25 l-60 -2 -1 43 c0 24 -2 53 -3 66 -3 22 0 23 58 22
108 -3 114 -2 112 18 -3 15 -17 17 -108 20 l-104 3 -1 -186z"/>
<path d="M2059 383 c-5 -45 4 -246 13 -273 15 -48 45 -78 89 -90 71 -20 137 5
169 62 20 36 23 55 24 172 l1 131 -25 0 -24 0 3 -105 c3 -140 -11 -196 -55
-218 -50 -23 -101 -8 -125 38 -16 29 -19 57 -19 162 l0 128 -25 0 c-14 0 -25
-3 -26 -7z"/>
<path d="M2567 383 c-2 -4 -5 -88 -5 -186 -1 -177 0 -178 21 -175 22 3 22 6
20 141 -1 76 -5 142 -8 147 -3 6 -3 10 2 10 4 0 18 -17 30 -38 51 -91 178
-262 194 -262 15 0 16 20 17 186 0 185 0 185 -21 182 -21 -3 -22 -6 -20 -143
1 -110 -1 -136 -10 -121 -90 142 -177 261 -195 264 -11 2 -22 0 -25 -5z"/>
<path d="M3050 206 l1 -186 47 -1 c81 -2 106 2 145 24 116 65 124 267 14 324
-19 9 -67 18 -119 21 l-88 5 0 -187z m159 128 c30 -12 45 -26 61 -58 21 -45
24 -65 14 -115 -9 -42 -68 -101 -102 -102 -15 0 -34 -2 -43 -4 -36 -7 -41 9
-43 154 l-3 141 38 0 c21 0 56 -7 78 -16z"/>
<path d="M3611 368 c-5 -13 -34 -84 -66 -158 -31 -74 -61 -147 -65 -162 -8
-26 -6 -28 18 -28 24 0 29 6 45 60 l17 61 83 -3 82 -3 19 -57 c17 -53 21 -58
47 -58 34 0 38 -20 -49 203 -63 161 -67 167 -94 167 -20 0 -31 -6 -37 -22z
m94 -186 c-7 -7 -115 -5 -122 2 -4 3 -1 17 5 31 13 27 23 53 43 103 l12 34 33
-83 c18 -46 31 -85 29 -87z"/>
<path d="M3919 388 c-11 -36 -7 -38 54 -38 l62 0 -2 -165 -2 -165 24 0 c17 0
25 6 26 18 0 9 0 83 0 165 l-1 147 60 0 c33 0 60 2 60 4 0 2 -3 11 -6 20 -5
14 -27 16 -140 16 -74 0 -134 -1 -135 -2z"/>
<path d="M4360 373 c-1 -33 -1 -298 -1 -325 1 -23 6 -28 24 -28 l24 0 1 185 0
185 -24 0 c-16 0 -24 -6 -24 -17z"/>
<path d="M5119 378 c-1 -7 0 -17 1 -23 3 -13 2 -286 0 -300 -6 -26 1 -36 23
-33 20 3 22 8 21 63 -7 258 -8 248 13 210 41 -77 188 -275 204 -275 16 0 18
15 16 183 -2 177 -3 182 -23 185 -21 3 -22 1 -19 -150 3 -138 2 -150 -10 -120
-8 18 -48 82 -90 143 -41 61 -75 115 -75 120 0 14 -60 10 -61 -3z"/>
</g>
</svg>
